<svg width="90" height="124" viewBox="0 0 90 124" fill="none" xmlns="http://www.w3.org/2000/svg">
<path d="M9 29.8533V49H82V29.8533C82 28.0994 81.9102 26.3304 81.3737 24.6607C79.4585 18.6997 74.5889 13.1759 70.5938 11.1682C45.5 0.277259 45.5 0.277261 20.4063 11.1682L20.4062 11.1682C16.4111 13.1759 11.5415 18.6997 9.62625 24.6607C9.08978 26.3304 9 28.0994 9 29.8533Z" stroke="white" stroke-width="6"/>
<path d="M2.75574 49H4.41028H87.2443C87.5973 49 87.9242 49.1862 88.1044 49.4899C88.4997 50.1565 88.0193 51 87.2443 51H2.75574C1.98072 51 1.50029 50.1565 1.89564 49.4899C2.07575 49.1862 2.40266 49 2.75574 49Z" fill="white" stroke="white" stroke-width="2"/>
<path d="M10 87.2196V50.057H81V86.8457C81 91.2242 79.8756 95.574 77.2711 99.0936C68.0271 111.585 55.0125 121 45.5 121C35.9313 121 22.3759 111.474 13.4053 98.8716C10.999 95.4912 10 91.3689 10 87.2196Z" stroke="white" stroke-width="5"/>
<path d="M36 99.2594H47.0095C49.9148 99.2594 52.7022 98.11 54.763 96.0622L55 95.8267" stroke="white" stroke-width="3" stroke-linecap="round"/>
<circle cx="31.8994" cy="72.3697" r="2.86061" fill="white"/>
<circle cx="58.217" cy="72.3697" r="2.86061" fill="white"/>
<path d="M40.4812 66.0764C32.1446 61.4994 31.033 61.4994 21.0291 66.0764" stroke="white" stroke-width="4" stroke-linecap="round"/>
<path d="M49.6352 66.0457C57.6448 66.5008 58.5 60 69.0873 62.803" stroke="white" stroke-width="4" stroke-linecap="round"/>
<line x1="43.5" y1="89.5" x2="48.5" y2="89.5" stroke="white" stroke-width="3" stroke-linecap="round"/>
<path d="M3.58261 59.6759C4.62101 58.9352 6.5397 58.4352 8.94495 60.2133V77.0632C8.85272 77.6598 9.03521 78.6278 8.99378 79.4546C8.8176 82.97 4.32461 77.8273 4.06066 74.3174L3.05963 61.0063C3.02133 60.497 3.16687 59.9724 3.58261 59.6759Z" stroke="white" stroke-width="3"/>
<path d="M87.4174 59.6759C86.379 58.9352 84.4603 58.4352 82.055 60.2133V77.0632C82.1473 77.6598 81.9648 78.6278 82.0062 79.4546C82.1824 82.97 86.6754 77.8273 86.9393 74.3174L87.9404 61.0063C87.9787 60.497 87.8331 59.9724 87.4174 59.6759Z" stroke="white" stroke-width="3"/>
<path d="M43.73 15.5133C44.3153 15.2036 45.0159 15.2036 45.6011 15.5133L55.2666 20.6287C55.9215 20.9753 56.3311 21.6555 56.3311 22.3964V32.3354C56.3311 33.0763 55.9215 33.7565 55.2666 34.1031L45.6011 39.2185C45.0159 39.5282 44.3153 39.5282 43.73 39.2185L34.0645 34.1031C33.4096 33.7565 33 33.0763 33 32.3354V22.3964C33 21.6555 33.4096 20.9753 34.0645 20.6287L43.73 15.5133Z" stroke="white" stroke-width="2"/>
<path fill-rule="evenodd" clip-rule="evenodd" d="M44.9453 19.7661V19.7464L44.9594 19.7562L44.9735 19.7464V19.7661L45.7318 20.2961L47.4168 21.4738C47.6431 21.632 47.6984 21.9438 47.5402 22.1701C47.382 22.3964 47.0702 22.4517 46.8439 22.2935L45.9453 21.6654V22.7204L48.537 24.3187C48.7721 24.4636 48.8451 24.7717 48.7002 25.0067C48.5552 25.2417 48.2472 25.3148 48.0121 25.1698L45.9453 23.8953V25.0284L49.1278 27.1913C49.3561 27.3465 49.4155 27.6575 49.2602 27.8859C49.105 28.1143 48.794 28.1736 48.5657 28.0184L45.9453 26.2375V27.3315L49.7122 30.0606C49.9358 30.2226 49.9857 30.5352 49.8237 30.7588C49.6617 30.9824 49.3491 31.0324 49.1255 30.8704L45.9453 28.5664V33.3208V33.8208L44.9735 33.8208H43.9735V33.3208V28.5664L40.7934 30.8704C40.5698 31.0324 40.2571 30.9824 40.0951 30.7588C39.9331 30.5352 39.9831 30.2226 40.2067 30.0606L43.9735 27.3315V26.2375L41.3532 28.0184C41.1248 28.1736 40.8138 28.1143 40.6586 27.8859C40.5034 27.6575 40.5627 27.3466 40.7911 27.1913L43.9735 25.0284V23.8953L41.9067 25.1698C41.6717 25.3148 41.3636 25.2417 41.2187 25.0067C41.0737 24.7717 41.1468 24.4636 41.3818 24.3187L43.9735 22.7204V21.6654L43.075 22.2935C42.8486 22.4517 42.5369 22.3964 42.3787 22.1701C42.2205 21.9438 42.2757 21.632 42.5021 21.4738L44.1871 20.2961L44.9453 19.7661Z" fill="white"/>
</svg>
