<svg width="133" height="133" viewBox="0 0 133 133" fill="none" xmlns="http://www.w3.org/2000/svg">
<rect width="133" height="133" fill="white"/>
<path d="M30 33.8533V53H103V33.8533C103 32.0994 102.91 30.3304 102.374 28.6607C100.459 22.6997 95.5889 17.1759 91.5938 15.1682C66.5 4.27726 66.5 4.27726 41.4063 15.1682L41.4062 15.1682C37.4111 17.1759 32.5415 22.6997 30.6263 28.6607C30.0898 30.3304 30 32.0994 30 33.8533Z" stroke="black" stroke-width="6"/>
<path d="M23.7557 53H25.4103H108.244C108.597 53 108.924 53.1862 109.104 53.4899C109.5 54.1565 109.019 55 108.244 55H23.7557C22.9807 55 22.5003 54.1565 22.8956 53.4899C23.0758 53.1862 23.4027 53 23.7557 53Z" fill="black" stroke="black" stroke-width="2"/>
<path d="M31 91.2196V54.057H102V90.8457C102 95.2242 100.876 99.574 98.2711 103.094C89.0271 115.585 76.0125 125 66.5 125C56.9313 125 43.3759 115.474 34.4053 102.872C31.999 99.4912 31 95.3689 31 91.2196Z" stroke="black" stroke-width="5"/>
<path d="M57 103.259H68.0095C70.9148 103.259 73.7021 102.11 75.763 100.062L76 99.8267" stroke="black" stroke-width="3" stroke-linecap="round"/>
<circle cx="52.8994" cy="76.3697" r="2.86061" fill="black"/>
<circle cx="79.217" cy="76.3697" r="2.86061" fill="black"/>
<path d="M61.4812 70.0764C53.1446 65.4994 52.033 65.4994 42.0291 70.0764" stroke="black" stroke-width="4" stroke-linecap="round"/>
<path d="M70.6351 70.0457C78.6448 70.5008 79.5 64 90.0873 66.803" stroke="black" stroke-width="4" stroke-linecap="round"/>
<path d="M24.5826 63.6759C25.621 62.9352 27.5397 62.4352 29.945 64.2133V81.0632C29.8527 81.6598 30.0352 82.6278 29.9938 83.4546C29.8176 86.97 25.3246 81.8273 25.0607 78.3174L24.0596 65.0063C24.0213 64.497 24.1669 63.9724 24.5826 63.6759Z" stroke="black" stroke-width="3"/>
<path d="M108.417 63.6759C107.379 62.9352 105.46 62.4352 103.055 64.2133V81.0632C103.147 81.6598 102.965 82.6278 103.006 83.4546C103.182 86.97 107.675 81.8273 107.939 78.3174L108.94 65.0063C108.979 64.497 108.833 63.9724 108.417 63.6759Z" stroke="black" stroke-width="3"/>
<path d="M64.73 19.5133C65.3153 19.2036 66.0159 19.2036 66.6011 19.5133L76.2666 24.6287C76.9215 24.9753 77.3311 25.6555 77.3311 26.3964V36.3354C77.3311 37.0763 76.9215 37.7565 76.2666 38.1031L66.6011 43.2185C66.0159 43.5282 65.3153 43.5282 64.73 43.2185L55.0645 38.1031C54.4096 37.7565 54 37.0763 54 36.3354V26.3964C54 25.6555 54.4096 24.9753 55.0645 24.6287L64.73 19.5133Z" stroke="black" stroke-width="2"/>
<path fill-rule="evenodd" clip-rule="evenodd" d="M65.9453 23.7661V23.7464L65.9594 23.7562L65.9735 23.7464V23.7661L66.7318 24.2961L68.4168 25.4738C68.6431 25.632 68.6984 25.9438 68.5402 26.1701C68.382 26.3964 68.0702 26.4517 67.8439 26.2935L66.9453 25.6654V26.7204L69.537 28.3187C69.7721 28.4636 69.8451 28.7717 69.7002 29.0067C69.5552 29.2417 69.2472 29.3148 69.0121 29.1698L66.9453 27.8953V29.0284L70.1278 31.1913C70.3561 31.3465 70.4155 31.6575 70.2602 31.8859C70.105 32.1143 69.794 32.1736 69.5657 32.0184L66.9453 30.2375V31.3315L70.7122 34.0606C70.9358 34.2226 70.9857 34.5352 70.8237 34.7588C70.6617 34.9824 70.3491 35.0324 70.1255 34.8704L66.9453 32.5664V37.3208V37.8208L65.9735 37.8208H64.9735V37.3208V32.5664L61.7934 34.8704C61.5698 35.0324 61.2571 34.9824 61.0951 34.7588C60.9331 34.5352 60.9831 34.2226 61.2067 34.0606L64.9735 31.3315V30.2375L62.3532 32.0184C62.1248 32.1736 61.8138 32.1143 61.6586 31.8859C61.5034 31.6575 61.5627 31.3466 61.7911 31.1913L64.9735 29.0284V27.8953L62.9067 29.1698C62.6717 29.3148 62.3636 29.2417 62.2187 29.0067C62.0737 28.7717 62.1468 28.4636 62.3818 28.3187L64.9735 26.7204V25.6654L64.075 26.2935C63.8486 26.4517 63.5369 26.3964 63.3787 26.1701C63.2205 25.9438 63.2757 25.632 63.5021 25.4738L65.1871 24.2961L65.9453 23.7661Z" fill="black"/>
<line x1="64.5" y1="93.5" x2="69.5" y2="93.5" stroke="black" stroke-width="3" stroke-linecap="round"/>
</svg>
